<svg fill="#000000" xmlns="http://www.w3.org/2000/svg"  viewBox="0 0 80 80" width="50px" height="50px"><path d="M 29.945312 7.0058594 C 28.659167 7.0216182 27.46496 7.1538791 26.378906 7.3574219 C 22.034691 8.171593 19.333984 10.138672 19.333984 10.138672 A 1.0001 1.0001 0 0 0 18.949219 10.71875 L 13.859375 32.607422 A 1.0001 1.0001 0 0 0 15.205078 33.761719 C 17.661578 32.779119 20.160967 31.983221 22.994141 32.001953 C 27.133311 32.027873 31.878752 33.122818 36.732422 35.871094 A 1.0001 1.0001 0 0 0 38.195312 35.244141 L 43.970703 12.310547 A 1.0001 1.0001 0 0 0 43.542969 11.226562 C 38.487238 7.9601701 33.803748 6.9585828 29.945312 7.0058594 z M 29.96875 8.9980469 C 33.299813 8.9469039 37.351711 9.8407689 41.837891 12.582031 L 36.556641 33.5625 C 31.814253 31.109357 27.149291 30.027904 23.005859 30.001953 C 20.488965 29.985313 18.290202 30.593756 16.210938 31.322266 L 20.800781 11.589844 C 21.163348 11.338401 23.161427 9.9960389 26.746094 9.3242188 C 27.727977 9.140199 28.805852 9.0159013 29.96875 8.9980469 z M 24 13 A 1.0001 1.0001 0 1 0 24 15 A 1.0001 1.0001 0 1 0 24 13 z M 48.703125 15 A 1.0001 1.0001 0 0 0 47.757812 15.751953 L 42.03125 38.167969 A 1.0001 1.0001 0 0 0 42.417969 39.228516 C 52.334297 46.342268 62.464989 43.819809 66.685547 42.210938 A 1.0001 1.0001 0 0 0 67.302734 41.505859 L 72.972656 17.449219 A 1.0001 1.0001 0 0 0 71.433594 16.396484 C 71.433594 16.396484 67.749856 18.942812 61.863281 19 C 58.315845 19.03447 54.03962 18.257774 49.271484 15.162109 A 1.0001 1.0001 0 0 0 48.703125 15 z M 23 17.298828 L 22.199219 17.701172 L 22.041016 18.582031 L 22.652344 19.236328 L 23 19.298828 L 23.800781 18.898438 L 23.958984 18.015625 L 23.347656 17.361328 L 23 17.298828 z M 49.376953 17.492188 C 54.015612 20.193529 58.328046 21.03454 61.882812 21 C 66.103274 20.959 68.78373 19.913897 70.541016 19.052734 L 65.490234 40.484375 C 61.489653 41.932998 52.884256 43.86014 44.152344 37.945312 L 49.376953 17.492188 z M 22 21.597656 L 21.199219 22 L 21.041016 22.882812 L 21.652344 23.537109 L 22 23.597656 L 22.800781 23.197266 L 22.958984 22.314453 L 22.347656 21.660156 L 22 21.597656 z M 52 22.101562 A 1.0001 1.0001 0 1 0 52 24.101562 A 1.0001 1.0001 0 1 0 52 22.101562 z M 21 25.898438 A 1.0001 1.0001 0 1 0 21 27.898438 A 1.0001 1.0001 0 1 0 21 25.898438 z M 51 26.400391 L 50.199219 26.802734 L 50.041016 27.683594 L 50.652344 28.339844 L 51 28.400391 L 51.800781 28 L 51.958984 27.117188 L 51.347656 26.462891 L 51 26.400391 z M 50 30.701172 L 49.199219 31.101562 L 49.041016 31.984375 L 49.652344 32.638672 L 50 32.701172 L 50.800781 32.298828 L 50.958984 31.416016 L 50.347656 30.761719 L 50 30.701172 z M 49 35 A 1.0001 1.0001 0 1 0 49 37 A 1.0001 1.0001 0 1 0 49 35 z M 22.992188 36.113281 C 18.962536 36.141451 15.657712 37.169242 13.636719 37.958984 A 1.0001 1.0001 0 0 0 13.029297 38.652344 L 6.9824219 63.240234 A 1.0001 1.0001 0 0 0 6.953125 63.480469 L 6.953125 63.548828 A 1.0001 1.0001 0 0 0 8.4882812 64.394531 C 8.4882812 64.394531 12.312573 61.962674 18.410156 62 C 21.70444 62.0195 25.485083 62.438389 29.683594 64.970703 A 1.0001 1.0001 0 0 0 31.169922 64.355469 L 36.923828 41.285156 A 1.0001 1.0001 0 0 0 36.501953 40.208984 C 31.710642 37.06352 26.991599 36.087203 22.992188 36.113281 z M 23.005859 38.113281 C 26.505566 38.090461 30.568572 38.936646 34.796875 41.544922 L 29.529297 62.669922 C 25.411954 60.507623 21.580299 60.018688 18.423828 60 C 13.959418 59.97267 11.166762 60.996566 9.3945312 61.806641 L 14.835938 39.677734 C 16.734951 38.969614 19.549347 38.13744 23.005859 38.113281 z M 18 42.101562 A 1.0001 1.0001 0 1 0 18 44.101562 A 1.0001 1.0001 0 1 0 18 42.101562 z M 41.683594 44 A 1.0001 1.0001 0 0 0 40.748047 44.759766 L 35.029297 67.865234 A 1.0001 1.0001 0 0 0 35.416016 68.916016 C 40.790781 72.786795 45.7762 73.923829 49.816406 74 C 56.252473 74.121259 60.380859 71.96875 60.380859 71.96875 A 1.0001 1.0001 0 0 0 60.916016 71.085938 L 60.916016 71.082031 L 66.140625 48.054688 A 1.0001 1.0001 0 0 0 64.917969 46.863281 C 62.75623 47.416284 60.023773 48 57.228516 48 C 52.632697 48 47.484284 47.48013 42.253906 44.15625 A 1.0001 1.0001 0 0 0 41.683594 44 z M 17 46.400391 L 16.199219 46.802734 L 16.041016 47.683594 L 16.652344 48.339844 L 17 48.400391 L 17.800781 48 L 17.958984 47.117188 L 17.347656 46.462891 L 17 46.400391 z M 42.386719 46.460938 C 47.633108 49.40892 52.817007 50 57.228516 50 C 59.66065 50 61.879401 49.587508 63.84375 49.140625 L 59.03125 70.351562 C 58.494153 70.615917 55.345942 72.10348 49.853516 72 C 46.291101 71.932837 41.966744 70.94741 37.146484 67.638672 L 42.386719 46.460938 z M 16 50.701172 L 15.199219 51.101562 L 15.041016 51.984375 L 15.652344 52.638672 L 16 52.701172 L 16.800781 52.298828 L 16.958984 51.416016 L 16.347656 50.761719 L 16 50.701172 z M 45 51.101562 A 1.0001 1.0001 0 1 0 45 53.101562 A 1.0001 1.0001 0 1 0 45 51.101562 z M 15 55 A 1.0001 1.0001 0 1 0 15 57 A 1.0001 1.0001 0 1 0 15 55 z M 44 55.400391 L 43.199219 55.802734 L 43.041016 56.683594 L 43.652344 57.339844 L 44 57.400391 L 44.800781 57 L 44.958984 56.117188 L 44.347656 55.462891 L 44 55.400391 z M 43 59.701172 L 42.199219 60.101562 L 42.041016 60.984375 L 42.652344 61.638672 L 43 61.701172 L 43.800781 61.298828 L 43.958984 60.416016 L 43.347656 59.761719 L 43 59.701172 z M 42 64 A 1.0001 1.0001 0 1 0 42 66 A 1.0001 1.0001 0 1 0 42 64 z"/></svg>